# File created by Blade
# Date/Time:  Wed Jan 21 17:34:04 2015
# Frame Rate: 120.000 fps
#------------------------------------------------------
:FULLY-SPECIFIED
:DEGREES
407
root 17.479881 8.966138 -11.819821 -198.001431 25.365151 -162.440079
Spine 65.684361 10.720766 16.558005
Head 6.586908 3.475106 -4.427868
LeftShoulder 4.272453 -23.478387 5.213614
LeftArm -0.131008 7.177556 -83.471157
LeftForeArm -49.511944 -0.000000 7.002838
LeftHand -0.938571 -0.000000 -1.322977
LeftHandThumb1 -26.253704 0.000000 33.147579
RightShoulder 15.550364 11.627993 -23.971402
RightArm 42.129986 19.083155 20.332900
RightForeArm -39.731991 -0.000000 62.561351
RightHand 2.784539 -0.000000 -5.614407
RightHandThumb1 -24.326973 -0.000000 -32.862282
LeftUpLeg -102.592084 10.900868 -41.017121
LeftLeg 104.514591 -0.000000 -0.000000
LeftFoot 16.583717 15.482824 -0.983178
LeftToeBase 17.525884 -0.000000 -0.000000
RightUpLeg -91.390591 10.524096 21.250699
RightLeg 137.077538 -0.000000 -0.000000
RightFoot -45.651947 -28.133809 20.875327
RightToeBase 18.971436 -0.000000 -0.000000
408
root 17.495994 8.751362 -11.872243 -198.411150 25.751769 -162.113284
Spine 65.492105 10.598658 17.356989
Head 6.744006 3.358609 -4.647291
LeftShoulder 4.059460 -23.051201 6.047326
LeftArm -0.605091 7.086103 -84.609882
LeftForeArm -49.290229 -0.000000 7.727261
LeftHand -1.355859 0.000000 -1.243325
LeftHandThumb1 -26.253704 0.000000 33.147579
RightShoulder 15.289959 11.511118 -23.979369
RightArm 42.124485 19.325376 20.461110
RightForeArm -39.966130 -0.000000 63.290877
RightHand 2.774635 -0.000000 -5.612179
RightHandThumb1 -24.326973 -0.000000 -32.862282
LeftUpLeg -102.568890 11.173202 -41.582734
LeftLeg 104.645659 -0.000000 -0.000000
LeftFoot 16.866432 15.860955 -0.977584
LeftToeBase 17.704535 -0.000000 -0.000000
RightUpLeg -91.663019 10.549225 21.689789
RightLeg 137.631133 -0.000000 -0.000000
RightFoot -45.488856 -28.330024 20.687193
RightToeBase 19.149455 -0.000000 -0.000000
409
root 17.512854 8.538139 -11.927088 -198.814238 26.141844 -161.805733
Spine 65.308001 10.475814 18.145661
Head 6.828136 3.276925 -4.905610
LeftShoulder 3.911336 -22.647900 6.840257
LeftArm -1.156519 7.023952 -85.700710
LeftForeArm -49.006265 -0.000000 8.540354
LeftHand -1.741453 -0.000000 -0.997656
LeftHandThumb1 -26.253704 0.000000 33.147579
RightShoulder 14.967387 11.394084 -24.039109
RightArm 42.177246 19.568616 20.747837
RightForeArm -40.119135 -0.000000 64.007508
RightHand 2.816875 -0.000000 -5.544048
RightHandThumb1 -24.326973 -0.000000 -32.862282
LeftUpLeg -102.571387 11.452684 -42.170624
LeftLeg 104.801327 -0.000000 -0.000000
LeftFoot 17.111841 16.211083 -1.106471
LeftToeBase 17.584657 -0.000000 -0.000000
RightUpLeg -91.942617 10.551517 22.115979
RightLeg 138.178723 -0.000000 -0.000000
RightFoot -45.294325 -28.564578 20.436568
RightToeBase 19.310732 -0.000000 -0.000000
410
root 17.529648 8.327684 -11.984993 -199.253220 26.521692 -161.522217
Spine 65.155440 10.297503 18.827189
Head 6.849663 3.261167 -5.166926
LeftShoulder 3.748127 -22.304887 7.686074
LeftArm -1.837225 6.812878 -86.772366
LeftForeArm -48.664662 0.000000 9.443533
LeftHand -2.204358 -0.000000 -1.177842
LeftHandThumb1 -26.253704 0.000000 33.147579
RightShoulder 14.761432 11.357675 -24.022216
RightArm 42.085947 19.733124 20.785450
RightForeArm -40.117159 -0.000000 64.766839
RightHand 2.860147 -0.000000 -5.648320
RightHandThumb1 -24.326973 -0.000000 -32.862282
LeftUpLeg -102.555085 11.738265 -42.863841
LeftLeg 104.921472 -0.000000 -0.000000
LeftFoot 17.131895 17.169737 -1.428440
LeftToeBase 17.850141 -0.000000 -0.000000
RightUpLeg -92.208855 10.539709 22.514820
RightLeg 138.739871 -0.000000 -0.000000
RightFoot -45.175235 -28.793625 20.361653
RightToeBase 19.598059 -0.000000 -0.000000
411
root 17.547525 8.117200 -12.042601 -199.639937 26.886313 -161.228670
Spine 64.954969 10.107608 19.507994
Head 6.872596 3.280938 -5.454992
LeftShoulder 3.581471 -21.810738 8.506401
LeftArm -2.352803 6.849161 -87.768766
LeftForeArm -48.494558 -0.000000 10.333879
LeftHand -2.630450 -0.000000 -1.347095
LeftHandThumb1 -26.253704 0.000000 33.147579
RightShoulder 14.511260 11.119494 -24.034682
RightArm 42.141228 20.100953 20.942086
RightForeArm -40.247830 -0.000000 65.502832
RightHand 2.954170 -0.000000 -5.641332
RightHandThumb1 -24.326973 -0.000000 -32.862282
LeftUpLeg -102.446859 12.035923 -43.523410
LeftLeg 105.098237 -0.000000 -0.000000
LeftFoot 16.715496 17.441521 -0.980218
LeftToeBase 19.147118 -0.000000 -0.000000
RightUpLeg -92.525837 10.496103 22.920205
RightLeg 139.298475 -0.000000 -0.000000
RightFoot -45.010738 -28.936991 20.245222
RightToeBase 19.595622 -0.000000 -0.000000
412
root 17.567292 7.909936 -12.102238 -200.014305 27.253879 -160.940746
Spine 64.748490 9.917959 20.134483
Head 6.869998 3.275011 -5.682538
LeftShoulder 3.376807 -21.008728 9.330541
LeftArm -2.717714 7.260667 -88.707121
LeftForeArm -48.705590 -0.000000 11.673622
LeftHand -3.279310 -0.000000 -0.724095
LeftHandThumb1 -26.253704 0.000000 33.147579
RightShoulder 14.293354 10.912877 -24.032601
RightArm 42.134982 20.432269 21.133815
RightForeArm -40.384383 -0.000000 66.294632
RightHand 2.977028 -0.000000 -5.732123
RightHandThumb1 -24.326973 -0.000000 -32.862282
LeftUpLeg -102.431421 12.301606 -44.057459
LeftLeg 105.308040 -0.000000 -0.000000
LeftFoot 16.653167 17.594367 -0.983833
LeftToeBase 19.566518 -0.000000 -0.000000
RightUpLeg -92.847234 10.466667 23.314721
RightLeg 139.854188 -0.000000 -0.000000
RightFoot -44.771019 -29.066803 20.089969
RightToeBase 19.507527 -0.000000 -0.000000
